<?xml version="1.0" encoding="UTF-8" standalone="no"?>
<!-- Created with Inkscape (http://www.inkscape.org/) -->

<svg
   width="148.59874mm"
   height="72.286873mm"
   viewBox="0 0 148.59874 72.286873"
   version="1.1"
   id="svg1"
   inkscape:version="1.4.2 (ebf0e94, 2025-05-08)"
   sodipodi:docname="iso_logo.svg"
   xmlns:inkscape="http://www.inkscape.org/namespaces/inkscape"
   xmlns:sodipodi="http://sodipodi.sourceforge.net/DTD/sodipodi-0.dtd"
   xmlns="http://www.w3.org/2000/svg"
   xmlns:svg="http://www.w3.org/2000/svg">
  <sodipodi:namedview
     id="namedview1"
     pagecolor="#505050"
     bordercolor="#ffffff"
     borderopacity="1"
     inkscape:showpageshadow="0"
     inkscape:pageopacity="0"
     inkscape:pagecheckerboard="1"
     inkscape:deskcolor="#505050"
     inkscape:document-units="mm"
     inkscape:zoom="0.72515432"
     inkscape:cx="250.29155"
     inkscape:cy="88.257076"
     inkscape:window-width="1920"
     inkscape:window-height="1009"
     inkscape:window-x="786"
     inkscape:window-y="1072"
     inkscape:window-maximized="1"
     inkscape:current-layer="layer1" />
  <defs
     id="defs1" />
  <g
     inkscape:label="Capa 1"
     inkscape:groupmode="layer"
     id="layer1"
     transform="translate(-106.62708,-121.44374)">
    <path
       id="path2"
       style="baseline-shift:baseline;display:inline;overflow:visible;vector-effect:none;fill:#000000;fill-opacity:1;stroke-width:8.4874;stroke-linecap:round;stroke-linejoin:round;stroke-miterlimit:4.5;enable-background:accumulate;stop-color:#000000"
       d="m 131.41861,132.6011 c -14.84385,2.97715 -25.42607,16.48666 -24.76193,31.61149 0.0578,1.31565 0.31582,3.43951 0.5748,4.73075 2.97711,14.84357 16.48611,25.42213 31.61096,24.75764 1.31566,-0.0577 3.43958,-0.31572 4.73055,-0.57595 4.60354,-0.92797 8.78744,-2.88047 12.36039,-5.57079 1.05206,-0.79216 1.85113,-1.50574 1.85349,-1.50604 l 0.004,-0.005 c 0.40746,-0.31967 0.40746,-0.31967 0.40746,-0.31967 l 0.22215,-0.20756 19.8258,-18.20903 c 0.97017,-0.89105 0.81571,-2.11834 -0.345,-2.74118 l -6.12856,-3.28872 c -1.16072,-0.62285 -2.70445,-0.56996 -3.44804,0.11809 l -12.4482,11.51767 c -0.96689,0.89462 -1.99475,1.75124 -1.88929,1.75124 -2.14863,1.98634 -2.93292,2.71207 -3.50319,3.24008 l -0.001,-0.0135 c -3.78947,2.71595 -5.92733,3.67628 -8.24796,4.24119 -1.27916,0.31136 -3.408,0.57 -4.72451,0.57502 -9.16739,0.0349 -17.12503,-6.19843 -19.28648,-15.10741 -0.31042,-1.27948 -0.56907,-3.4083 -0.5741,-4.72482 -0.035,-9.16792 6.19795,-17.1288 15.1069,-19.29075 1.27946,-0.31049 3.40833,-0.56896 4.72485,-0.57369 1.70418,-0.007 3.36634,0.2044 4.95737,0.60774 2.32798,0.76055 2.32798,0.76055 2.32798,0.76055 l 62.09676,33.513 c 2.1179,1.14631 2.1179,1.14631 2.1179,1.14631 1.59371,0.86239 1.59371,0.86239 1.59371,0.86239 0.27257,0.135 0.27257,0.135 0.27257,0.135 6.11596,2.53349 10.41922,3.30695 14.85987,3.11221 1.31568,-0.0577 3.43954,-0.31574 4.73074,-0.57491 14.84158,-2.97889 25.4217,-16.4872 24.75763,-31.61068 -0.0578,-1.31565 -0.31583,-3.43951 -0.5748,-4.73075 -2.97712,-14.84358 -16.48612,-25.42214 -31.61096,-24.75764 -1.31567,0.0577 -3.43958,0.31571 -4.73056,0.57595 -4.60353,0.92797 -8.78742,2.88053 -12.36037,5.57085 -1.05206,0.79217 -1.85114,1.50577 -1.8535,1.50609 l 5.1e-4,0.004 -0.004,5.4e-4 c -0.4031,0.31847 -0.4031,0.31847 -0.4031,0.31847 l -0.22656,0.20892 -8.80809,8.08721 c -0.97031,0.8909 -2.54323,2.33562 -3.51321,3.22688 l -7.40935,6.80808 c -0.96998,0.89126 -0.82066,2.12843 0.33353,2.76332 l 6.05671,3.33162 c 1.15419,0.63489 2.69262,0.59171 3.43621,-0.0965 l 5.35074,-4.95128 c 0.96684,-0.89466 2.4699,-2.41015 3.40627,-3.33643 2.64219,-2.61374 6.27364,-5.76868 8.42817,-7.60409 0.99908,-0.8511 2.67041,-2.1812 3.81529,-2.83111 1.56567,-0.88878 3.27367,-1.57573 5.09364,-2.01911 1.2791,-0.31164 3.40796,-0.57025 4.72447,-0.57528 9.16738,-0.0349 17.12502,6.19839 19.28647,15.10734 0.31042,1.27948 0.56907,3.4083 0.5741,4.72483 0.035,9.16794 -6.19795,17.12886 -15.1069,19.29084 -1.27946,0.31049 -3.40829,0.56921 -4.7248,0.5745 -1.83968,0.007 -3.63036,-0.23758 -5.33548,-0.70718 -1.26921,-0.34954 -2.52808,-0.91397 -2.86409,-1.09053 l -0.005,-0.004 c -0.31174,-0.16588 -0.31174,-0.16588 -0.31174,-0.16588 l -59.80265,-32.26796 c -1.15929,-0.62553 -2.99782,-1.71281 -4.16122,-2.32996 -0.95805,-0.5082 -1.83062,-0.90313 -1.91429,-0.95005 -1.00883,-0.41173 -1.00883,-0.41173 -1.00883,-0.41173 -5.59095,-1.86777 -9.15938,-2.36744 -12.82347,-2.20668 -1.31569,0.0577 -2.37623,0.19674 -2.37596,0.19719 z"
       sodipodi:nodetypes="cscccccccccccccccsccccccccsccccccccccccccsccccccccccc" />
  </g>
</svg>
